<svg viewBox="0 0 24 24" xmlns="http://www.w3.org/2000/svg" fill="#26a69a" width="24" height="24">
  <title>i18next</title>
  <path d="M14.936 2.487v4.517l5.076 13.036s1.55 3.184-2.882 3.96H7.019s-4.13-.431-3.14-3.702L9.213 7.004V2.487h5.723Zm2.09 13.108c-4.43-1.374-8.155-.637-9.975-.079l-1.836 4.419c-.783 2.5 2.273 2.942 2.597 2.981l.028.003h8.444c3.541-.598 2.511-2.972 2.415-3.177l-.007-.014-1.666-4.133Zm-7.813.777c.789 0 1.429.386 1.429.865 0 .476-.64.864-1.429.864-.789 0-1.427-.388-1.427-.864 0-.478.638-.865 1.427-.865Zm5.084 0c.787 0 1.427.386 1.427.865 0 .476-.64.864-1.427.864-.791 0-1.429-.388-1.429-.864 0-.478.638-.865 1.429-.865Zm-4.5-5.213c-.552 0-1 .54-1 1.205 0 .666.448 1.205 1 1.205.552 0 1-.54 1-1.205 0-.666-.448-1.205-1-1.205Zm3.641-1.297c-.655 0-1.186.638-1.186 1.429 0 .787.531 1.427 1.186 1.427.653 0 1.186-.64 1.186-1.427 0-.79-.533-1.429-1.186-1.429Zm6.036-2.738s-2.122 1.546-4.086-.42V4.556s2.724-.601 4.086 2.568Zm-14.844 0c1.362-3.169 4.086-2.568 4.086-2.568v2.148c-1.965 1.966-4.086.42-4.086.42ZM15.044 0c.495 0 .896.439.896.981 0 .542-.401.981-.896.981H8.955c-.493 0-.894-.439-.894-.981 0-.542.4-.981.894-.981h6.089Z"/>
</svg>
